<?xml version="1.0" encoding="UTF-8"?><svg xmlns="http://www.w3.org/2000/svg" xmlns:xlink="http://www.w3.org/1999/xlink" fill-opacity="1" color-rendering="auto" color-interpolation="auto" text-rendering="auto" stroke="black" stroke-linecap="square" width="920" stroke-miterlimit="10" shape-rendering="auto" stroke-opacity="1" fill="black" stroke-dasharray="none" font-weight="normal" stroke-width="1" height="241" font-family="'Dialog'" font-style="normal" stroke-linejoin="miter" font-size="12px" stroke-dashoffset="0" image-rendering="auto">
  <!--Generated by ySVG 2.6-->
  <defs id="genericDefs"/>
  <g>
    <g fill="white" text-rendering="geometricPrecision" shape-rendering="geometricPrecision" transform="translate(-118,-367)" stroke="white">
      <rect x="118" width="920" height="241" y="367" clip-path="url(#clipPath2)" stroke="none"/>
    </g>
    <g text-rendering="geometricPrecision" shape-rendering="geometricPrecision" transform="matrix(1,0,0,1,175.187,32.031)">
      <g clip-path="url(#clipPath3)">
        <svg xml:space="preserve" opacity="1" writing-mode="lr-tb" stop-color="rgb(0, 0, 0)" shape-rendering="auto" glyph-orientation-horizontal="0deg" color-profile="auto" lighting-color="rgb(255, 255, 255)" color="rgb(0, 0, 0)" font-weight="400" alignment-baseline="auto" font-style="normal" version="1.1" color-interpolation-filters="linearrgb" text-anchor="start" stroke-linecap="butt" color-interpolation="srgb" font-variant="normal" word-spacing="normal" fill-opacity="1" text-rendering="auto" clip-path="none" text-decoration="none" letter-spacing="normal" viewBox="-0.064 -0.075 68 46" glyph-orientation-vertical="auto" display="inline" font-size-adjust="none" overflow="hidden" fill="rgb(0, 0, 0)" font-stretch="normal" stroke-dasharray="none" stroke-miterlimit="4" stop-opacity="1" color-rendering="auto" font-size="12" pointer-events="visiblepainted" mask="none" direction="ltr" baseline-shift="baseline" enable-background="new -0.064 -0.075 68 46" fill-rule="nonzero" image-rendering="auto" stroke-dashoffset="0" width="68px" marker-end="none" clip="auto" cursor="auto" stroke="none" filter="none" visibility="visible" kerning="auto" stroke-width="1" font-family="&quot;Arial&quot;,&quot;Helvetica&quot;,sans-serif" flood-opacity="1" clip-rule="nonzero" src="none" height="46px" unicode-bidi="normal" stroke-linejoin="miter" stroke-opacity="1" flood-color="rgb(0, 0, 0)" dominant-baseline="auto" marker-start="none" x="0px" marker-mid="none" y="0px">
<defs>
<clipPath clipPathUnits="userSpaceOnUse" id="clipPath1"><path d="M0 0 L920 0 L920 241 L0 241 L0 0 Z"/></clipPath><clipPath clipPathUnits="userSpaceOnUse" id="clipPath2"><path d="M118 367 L1038 367 L1038 608 L118 608 L118 367 Z"/></clipPath><clipPath clipPathUnits="userSpaceOnUse" id="clipPath3"><path d="M-175.187 -32.031 L744.813 -32.031 L744.813 208.969 L-175.187 208.969 L-175.187 -32.031 Z"/></clipPath><clipPath clipPathUnits="userSpaceOnUse" id="clipPath4"><path d="M-713.4523 -160.458 L206.5477 -160.458 L206.5477 80.542 L-713.4523 80.542 L-713.4523 -160.458 Z"/></clipPath><clipPath clipPathUnits="userSpaceOnUse" id="clipPath5"><path d="M-191.4523 -160.458 L728.5477 -160.458 L728.5477 80.542 L-191.4523 80.542 L-191.4523 -160.458 Z"/></clipPath><clipPath clipPathUnits="userSpaceOnUse" id="clipPath6"><path d="M-697.187 -32.031 L222.813 -32.031 L222.813 208.969 L-697.187 208.969 L-697.187 -32.031 Z"/></clipPath><clipPath clipPathUnits="userSpaceOnUse" id="clipPath7"><path d="M-89.3939 -10.0902 L837.8451 -10.0902 L837.8451 216.3641 L-89.3939 216.3641 L-89.3939 -10.0902 Z"/></clipPath><clipPath clipPathUnits="userSpaceOnUse" id="clipPath8"><path d="M-795.5862 -14.3717 L125.3829 -14.3717 L125.3829 209.5772 L-795.5862 209.5772 L-795.5862 -14.3717 Z"/></clipPath></defs>
<radialGradient gradientTransform="matrix(1.15 0 0 1 -526.6598 -1982.4023)" id="svg1.SVGID_1_" r="21.6001" cx="478.8413" gradientUnits="userSpaceOnUse" cy="1991.2729">
	<stop offset="0" style="stop-color:#F2F2F2"/>
	<stop offset="1" style="stop-color:#8D8D8D"/>
</radialGradient>
<path fill="url(#svg1.SVGID_1_)" d="M10.263,1.903c0-0.987,0.807-1.794,1.794-1.794h43.279c0.986,0,1.795,0.807,1.795,1.794v26.978  c0,0.987-0.809,1.794-1.795,1.794h-43.28c-0.987,0-1.794-0.807-1.794-1.794L10.263,1.903L10.263,1.903z"/>
<path stroke-linecap="round" display="none" fill="none" stroke-linejoin="round" d="  M10.263,1.903c0-0.987,0.807-1.794,1.794-1.794h43.279c0.986,0,1.795,0.807,1.795,1.794v26.978c0,0.987-0.809,1.794-1.795,1.794  h-43.28c-0.987,0-1.794-0.807-1.794-1.794L10.263,1.903L10.263,1.903z" stroke="#3C89C9" stroke-width="0.2185" stroke-miterlimit="10"/>
<radialGradient gradientTransform="matrix(1.1935 0 0 1 -509.6731 -1982.4023)" gradientUnits="userSpaceOnUse" r="47.8462" cx="455.894" id="svg1.SVGID_2_" cy="1983.9624" fx="493.5344" fy="1977.5143">
	<stop offset="0" style="stop-color:#4D4D4D"/>
	<stop offset="1" style="stop-color:#999999"/>
</radialGradient>
<path fill="url(#svg1.SVGID_2_)" d="M11.18,2.819c0-0.987,0.807-1.794,1.794-1.794h41.649c0.986,0,1.795,0.807,1.795,1.794v24.943  c0,0.985-0.809,1.794-1.795,1.794H12.974c-0.987,0-1.794-0.809-1.794-1.794V2.819z"/>
<radialGradient gradientTransform="matrix(1.1923 0 0 1 -510.1314 -1982.4023)" id="svg1.SVGID_3_" r="30.6699" cx="456.8843" gradientUnits="userSpaceOnUse" cy="1984.0386">
	<stop offset="0" style="stop-color:#9CD7FF"/>
	<stop offset="1" style="stop-color:#3C89C9"/>
</radialGradient>
<path fill="url(#svg1.SVGID_3_)" d="M11.689,3.228c0-0.987,0.807-1.794,1.794-1.794h40.633c0.986,0,1.795,0.807,1.795,1.794v24.126  c0,0.986-0.809,1.794-1.795,1.794H13.483c-0.987,0-1.794-0.809-1.794-1.794V3.228z"/>
<path fill="#F2F2F2" opacity="0.24" d="M11.689,21.472V3.228c0-0.987,0.807-1.794,1.794-1.794h40.633  c0.986,0,1.795,0.807,1.795,1.794v9.454c0,0.987-10.518,5.21-18.256,6.795C29.917,21.062,11.689,21.472,11.689,21.472z"/>
<linearGradient gradientTransform="matrix(1 0 0 -1 -97.6001 -165.0498)" x1="131.3501" x2="131.3501" gradientUnits="userSpaceOnUse" y1="-212.2612" y2="-170.6274" id="svg1.SVGID_4_">
	<stop offset="0" style="stop-color:#4D4D4D"/>
	<stop offset="0.0667" style="stop-color:#717171"/>
	<stop offset="0.069" style="stop-color:#757575"/>
	<stop offset="0.0831" style="stop-color:#8C8C8C"/>
	<stop offset="0.0996" style="stop-color:#9E9E9E"/>
	<stop offset="0.1196" style="stop-color:#AAAAAA"/>
	<stop offset="0.1466" style="stop-color:#B1B1B1"/>
	<stop offset="0.2121" style="stop-color:#B3B3B3"/>
	<stop offset="1" style="stop-color:#C5C5C5"/>
</linearGradient>
<path fill="url(#svg1.SVGID_4_)" d="M58.385,32.234c-0.689-0.856-2.154-1.559-3.254-1.559H12c-1.1,0-2.552,0.711-3.227,1.579  l-7.546,9.717C0,43.55,0.042,43.785,0,44.55v0.125c0.056,0.393,0.311,1.002,1.248,1.002h64.75c0.75,0.002,1.5-0.252,1.5-1.002V44.55  c0-0.813,0-0.813-1.254-2.559L58.385,32.234z"/>
<path fill="#F2F2F2" d="M58.385,32.234c-0.689-0.856-2.154-1.559-3.254-1.559H12  c-1.1,0-2.552,0.711-3.227,1.579l-7.055,9.085l58.098-7.33L58.385,32.234z" enable-background="new    " opacity="0.23"/>
<path fill="#6E6E6E" d="M59.75,37.205c0.344,0.431,0.172,0.783-0.377,0.783H8.249c-0.55,0-0.742-0.369-0.427-0.819l2.786-3.986  c0.315-0.45,1.023-0.819,1.573-0.819h42.729c0.551,0,1.279,0.354,1.623,0.783L59.75,37.205z"/>
<path fill="#6E6E6E" d="M40.43,41.906c0.072,0.217-0.057,0.395-0.285,0.395H26.727c-0.229,0-0.364-0.18-0.3-0.398l0.822-2.826  c0.064-0.221,0.303-0.399,0.532-0.399h11.167c0.229,0,0.475,0.179,0.547,0.396L40.43,41.906z"/>
</svg>
      </g>
    </g>
    <g text-rendering="geometricPrecision" shape-rendering="geometricPrecision" transform="matrix(1,0,0,1,713.4524,160.458)">
      <g clip-path="url(#clipPath4)">
        <svg xml:space="preserve" opacity="1" writing-mode="lr-tb" stop-color="rgb(0, 0, 0)" shape-rendering="auto" glyph-orientation-horizontal="0deg" color-profile="auto" lighting-color="rgb(255, 255, 255)" color="rgb(0, 0, 0)" font-weight="400" alignment-baseline="auto" font-style="normal" version="1.1" color-interpolation-filters="linearrgb" text-anchor="start" stroke-linecap="butt" color-interpolation="srgb" font-variant="normal" word-spacing="normal" fill-opacity="1" text-rendering="auto" clip-path="none" text-decoration="none" letter-spacing="normal" viewBox="0 -0.741 36 57" glyph-orientation-vertical="auto" display="inline" font-size-adjust="none" overflow="hidden" fill="rgb(0, 0, 0)" font-stretch="normal" stroke-dasharray="none" stroke-miterlimit="4" stop-opacity="1" color-rendering="auto" font-size="12" pointer-events="visiblepainted" mask="none" direction="ltr" baseline-shift="baseline" enable-background="new 0 -0.741 36 57" fill-rule="nonzero" image-rendering="auto" stroke-dashoffset="0" width="36px" marker-end="none" clip="auto" cursor="auto" stroke="none" filter="none" visibility="visible" kerning="auto" stroke-width="1" font-family="&quot;Arial&quot;,&quot;Helvetica&quot;,sans-serif" flood-opacity="1" clip-rule="nonzero" src="none" height="57px" unicode-bidi="normal" stroke-linejoin="miter" stroke-opacity="1" flood-color="rgb(0, 0, 0)" dominant-baseline="auto" marker-start="none" x="0px" marker-mid="none" y="0px">
<defs>
</defs>
<linearGradient gradientTransform="matrix(1 0 0 1 -195.2002 -770.8008)" x1="230.1768" x2="180.3346" gradientUnits="userSpaceOnUse" y1="798.6021" y2="798.6021" id="svg2.SVGID_1_">
	<stop offset="0" style="stop-color:#4D4D4D"/>
	<stop offset="1" style="stop-color:#8D8D8D"/>
</linearGradient>
<rect fill="url(#svg2.SVGID_1_)" width="34.977" y="0.943" height="53.716"/>
<linearGradient gradientTransform="matrix(1 0 0 1 -195.2002 -770.8008)" x1="224.6807" x2="200.6973" gradientUnits="userSpaceOnUse" y1="798.6021" y2="798.6021" id="svg2.SVGID_2_">
	<stop offset="0.0319" style="stop-color:#848484"/>
	<stop offset="0.1202" style="stop-color:#8C8C8C"/>
	<stop offset="0.308" style="stop-color:#969696"/>
	<stop offset="0.5394" style="stop-color:#999999"/>
	<stop offset="0.5501" style="stop-color:#9C9C9C"/>
	<stop offset="0.6256" style="stop-color:#B0B0B0"/>
	<stop offset="0.7118" style="stop-color:#BEBEBE"/>
	<stop offset="0.8178" style="stop-color:#C7C7C7"/>
	<stop offset="1" style="stop-color:#C9C9C9"/>
</linearGradient>
<path fill="url(#svg2.SVGID_2_)" d="M5.497,0.943c7.945-1.258,16.04-1.258,23.983,0c0,17.905,0,35.811,0,53.716  c-7.943,1.258-16.039,1.258-23.983,0C5.497,36.753,5.497,18.848,5.497,0.943z"/>
<path fill="#515151" d="M5.497,14.621c7.995,0,15.989,0,23.983,0c0,13.346,0,26.693,0,40.037c-7.943,1.258-16.039,1.258-23.983,0  C5.497,41.314,5.497,27.967,5.497,14.621z"/>
<path fill="#565656" opacity="0.43" d="M5.497,4.745c7.982-0.628,16.001-0.628,23.983,0c0,2.707,0,5.413,0,8.12  c-7.994,0-15.989,0-23.983,0C5.497,10.158,5.497,7.452,5.497,4.745z"/>
<path fill="none" stroke-width="0.0999" d="M5.497,4.745  c7.982-0.628,16.001-0.628,23.983,0c0,2.707,0,5.413,0,8.12c-7.994,0-15.989,0-23.983,0C5.497,10.158,5.497,7.452,5.497,4.745z" stroke-miterlimit="10" opacity="0.43" stroke="#4D4D4D"/>
<polygon enable-background="new    " points="  6.496,5.746 9.869,5.606 9.869,6.661 6.496,6.799 " fill="#565656" opacity="0.43" stroke="#4D4D4D" stroke-width="0.0135" stroke-miterlimit="10"/>
<rect x="31.307" y="2.517" fill="#E7ED00" width="3.692" height="1.505" stroke="#717171" stroke-width="0.1926" stroke-miterlimit="10"/>
<rect x="31.307" y="5.8" fill="#C8FF00" width="3.692" height="1.507" stroke="#717171" stroke-width="0.1926" stroke-miterlimit="10"/>
<linearGradient y2="35.1235" id="svg2.SVGID_3_" x1="29.4414" gradientUnits="userSpaceOnUse" x2="5.4995" y1="35.1235">
	<stop offset="0" style="stop-color:#808080"/>
	<stop offset="0.1907" style="stop-color:#828282"/>
	<stop offset="0.2955" style="stop-color:#8A8A8A"/>
	<stop offset="0.3795" style="stop-color:#989898"/>
	<stop offset="0.4524" style="stop-color:#ACACAC"/>
	<stop offset="0.5175" style="stop-color:#C5C5C5"/>
	<stop offset="0.5273" style="stop-color:#C9C9C9"/>
	<stop offset="0.5914" style="stop-color:#C9C9C9"/>
	<stop offset="0.9681" style="stop-color:#C9C9C9"/>
</linearGradient>
<path fill="url(#svg2.SVGID_3_)" d="M5.5,14.822c0,13.22,0,26.438,0,39.66c7.931,1.256,16.012,1.256,23.941,0c0-13.222,0-26.439,0-39.66  C21.461,14.822,13.48,14.822,5.5,14.822z M28.396,18.703c-0.74,0.01-1.482,0.02-2.225,0.029c0-0.951,0-1.901-0.001-2.85  c0.742-0.003,1.483-0.005,2.224-0.008C28.396,16.817,28.396,17.76,28.396,18.703z M16.354,42.496c0-0.961,0-1.924,0-2.885  c0.744,0.006,1.489,0.006,2.233,0c0,0.961,0,1.924,0,2.885C17.843,42.503,17.098,42.503,16.354,42.496z M18.587,43.568  c0,0.955,0,1.91,0,2.866c-0.744,0.009-1.489,0.009-2.234,0c0-0.956,0-1.911,0-2.866C17.098,43.574,17.843,43.574,18.587,43.568z   M18.586,27.742c0,0.961,0,1.922,0,2.886c-0.744,0.004-1.488,0.004-2.231,0c0-0.964,0-1.925,0-2.886  C17.099,27.746,17.842,27.746,18.586,27.742z M16.354,26.671c0-0.955,0-1.91,0-2.865c0.743,0.002,1.487,0.002,2.23,0  c0,0.955,0,1.91,0,2.865C17.842,26.675,17.099,26.675,16.354,26.671z M16.354,34.583c0-0.961,0-1.924,0-2.885  c0.744,0.004,1.488,0.004,2.231,0c0,0.961,0,1.924,0,2.885C17.842,34.588,17.099,34.588,16.354,34.583z M18.586,35.656  c0,0.961,0,1.924,0.001,2.885c-0.745,0.008-1.489,0.008-2.233,0c0-0.961,0-1.924,0-2.885C17.099,35.66,17.842,35.66,18.586,35.656z   M15.307,30.619c-0.742-0.01-1.484-0.021-2.227-0.039c0-0.957,0-1.916,0-2.875c0.742,0.014,1.485,0.023,2.226,0.029  C15.307,28.695,15.307,29.656,15.307,30.619z M15.307,31.689c0,0.961,0,1.924,0,2.885c-0.742-0.012-1.485-0.025-2.227-0.047  c0-0.959,0.001-1.92,0.001-2.877C13.822,31.667,14.565,31.68,15.307,31.689z M15.307,35.644c0,0.959,0,1.922-0.001,2.883  c-0.742-0.012-1.485-0.031-2.228-0.056c0-0.959,0.001-1.918,0.001-2.877C13.821,35.617,14.564,35.633,15.307,35.644z M15.306,39.597  c0,0.96,0,1.922,0,2.883c-0.742-0.016-1.486-0.037-2.228-0.064c0-0.959,0-1.916,0.001-2.877  C13.82,39.564,14.563,39.585,15.306,39.597z M19.637,39.597c0.742-0.012,1.484-0.033,2.227-0.059c0,0.959,0,1.918,0,2.875  c-0.741,0.029-1.483,0.052-2.227,0.064C19.637,41.519,19.637,40.559,19.637,39.597z M19.637,38.527c0-0.961,0-1.924,0-2.883  c0.74-0.012,1.482-0.027,2.225-0.05c0,0.959,0,1.918,0.002,2.876C21.121,38.496,20.377,38.515,19.637,38.527z M19.637,34.572  c0-0.961,0-1.922-0.002-2.883c0.741-0.01,1.483-0.021,2.225-0.039c0.002,0.957,0.002,1.916,0.002,2.875  C21.119,34.547,20.376,34.564,19.637,34.572z M19.635,30.619c0-0.963,0-1.924,0-2.885c0.74-0.006,1.483-0.017,2.225-0.029  c0,0.959,0,1.916,0,2.875C21.118,30.599,20.376,30.609,19.635,30.619z M19.633,26.666c0-0.955,0-1.909,0-2.864  c0.741-0.005,1.483-0.013,2.227-0.021c0,0.951,0,1.903,0,2.856C21.118,26.65,20.375,26.66,19.633,26.666z M19.633,22.732  c-0.001-0.963-0.001-1.924-0.001-2.885c0.741-0.002,1.483-0.006,2.226-0.012c0,0.959,0.002,1.918,0.002,2.877  C21.116,22.72,20.374,22.728,19.633,22.732z M18.586,22.736c-0.744,0.002-1.487,0.002-2.23,0c0-0.963,0-1.924,0-2.887  c0.743,0.002,1.487,0.002,2.23,0C18.586,20.813,18.586,21.773,18.586,22.736z M15.309,22.732c-0.742-0.004-1.483-0.012-2.226-0.02  c0-0.959,0.001-1.918,0.001-2.877c0.742,0.006,1.484,0.01,2.226,0.012C15.31,20.808,15.309,21.769,15.309,22.732z M15.309,23.801  c0,0.955,0,1.91,0,2.864c-0.742-0.006-1.483-0.016-2.227-0.027c0-0.953,0-1.906,0-2.859C13.825,23.789,14.566,23.796,15.309,23.801z   M12.036,26.617c-0.742-0.017-1.483-0.033-2.225-0.055c0-0.947,0-1.895,0.001-2.841c0.741,0.019,1.483,0.031,2.225,0.042  C12.037,24.716,12.036,25.666,12.036,26.617z M12.035,27.683c0,0.957,0,1.916,0,2.873c-0.742-0.021-1.483-0.047-2.225-0.076  c0-0.953,0-1.904,0-2.857C10.552,27.646,11.293,27.667,12.035,27.683z M12.035,31.621c0,0.957-0.001,1.914-0.001,2.871  c-0.742-0.023-1.483-0.055-2.224-0.092c0-0.953,0-1.906,0-2.859C10.551,31.572,11.292,31.6,12.035,31.621z M12.033,35.56  c0,0.956-0.001,1.914-0.001,2.871c-0.742-0.031-1.484-0.066-2.225-0.111c0-0.953,0.001-1.906,0.001-2.858  C10.549,35.5,11.291,35.533,12.033,35.56z M12.031,39.498c0,0.955,0,1.914-0.001,2.869c-0.742-0.035-1.484-0.078-2.225-0.129  c0-0.953,0-1.904,0.001-2.857C10.547,39.426,11.289,39.465,12.031,39.498z M12.03,43.435c0,0.951-0.001,1.901-0.001,2.854  c-0.742-0.041-1.484-0.09-2.225-0.149c0-0.944,0.001-1.892,0.001-2.838C10.546,43.353,11.288,43.4,12.03,43.435z M13.077,43.482  c0.743,0.031,1.486,0.053,2.228,0.067c0,0.956,0,1.91,0,2.864c-0.742-0.016-1.486-0.041-2.229-0.074  C13.077,45.389,13.077,44.435,13.077,43.482z M15.305,47.486c0,0.961,0,1.922,0,2.883c-0.743-0.019-1.487-0.047-2.23-0.084  c0-0.959,0-1.918,0.001-2.875C13.818,47.443,14.562,47.468,15.305,47.486z M16.353,47.504c0.745,0.009,1.49,0.009,2.234,0  c0.001,0.96,0.001,1.924,0.001,2.883c-0.745,0.011-1.49,0.011-2.235,0C16.353,49.427,16.353,48.464,16.353,47.504z M19.639,47.486  c0.741-0.018,1.483-0.043,2.227-0.076c0,0.957,0.002,1.916,0.002,2.875c-0.742,0.037-1.486,0.065-2.229,0.084  C19.639,49.406,19.639,48.447,19.639,47.486z M19.637,46.414c0-0.954,0-1.908,0-2.864c0.742-0.015,1.484-0.036,2.229-0.067  c0,0.953,0,1.905,0,2.857C21.122,46.373,20.379,46.398,19.637,46.414z M22.911,43.435c0.741-0.035,1.483-0.082,2.224-0.135  c0,0.945,0,1.895,0.002,2.838c-0.74,0.059-1.482,0.107-2.226,0.15C22.911,45.336,22.911,44.386,22.911,43.435z M22.911,42.369  c-0.001-0.957-0.001-1.914-0.002-2.871c0.741-0.032,1.483-0.069,2.225-0.117c0,0.954,0.001,1.906,0.001,2.857  C24.395,42.289,23.652,42.333,22.911,42.369z M22.909,38.431c0-0.957-0.001-1.915-0.001-2.871c0.742-0.027,1.482-0.061,2.224-0.098  c0.001,0.951,0.001,1.904,0.001,2.857C24.393,38.363,23.65,38.4,22.909,38.431z M22.908,34.494c0-0.957-0.002-1.916-0.002-2.871  c0.742-0.021,1.482-0.051,2.225-0.079c0,0.952,0,1.903,0.001,2.856C24.391,34.437,23.648,34.468,22.908,34.494z M22.906,30.556  c0-0.957,0-1.916-0.002-2.873c0.742-0.016,1.484-0.037,2.226-0.061c0,0.953,0.001,1.904,0.001,2.857  C24.391,30.509,23.648,30.535,22.906,30.556z M22.904,26.617c0-0.951,0-1.901,0-2.854c0.74-0.011,1.482-0.025,2.224-0.042  c0,0.946,0.001,1.894,0.001,2.841C24.389,26.583,23.646,26.601,22.904,26.617z M22.902,22.699c0-0.957,0-1.916,0-2.874  c0.742-0.007,1.482-0.014,2.225-0.023c0.001,0.953,0.001,1.906,0.001,2.859C24.387,22.676,23.646,22.689,22.902,22.699z   M22.902,18.76C22.9,17.802,22.9,16.845,22.9,15.887c0.742,0,1.481-0.003,2.225-0.004c0.001,0.953,0.001,1.906,0.002,2.858  C24.385,18.75,23.643,18.756,22.902,18.76z M21.855,18.767c-0.742,0.004-1.482,0.007-2.225,0.009c0-0.961,0-1.922,0-2.884  c0.741,0,1.482-0.001,2.225-0.002C21.855,16.849,21.855,17.808,21.855,18.767z M18.585,18.779c-0.743,0.001-1.486,0.001-2.229,0  c0-0.961,0-1.923,0-2.885c0.742,0,1.486,0,2.229,0C18.585,16.855,18.585,17.817,18.585,18.779z M15.31,18.777  c-0.742-0.002-1.483-0.005-2.225-0.009c0-0.959,0-1.918,0-2.877c0.742,0,1.483,0.001,2.225,0.002  C15.31,16.854,15.31,17.815,15.31,18.777z M12.039,18.76c-0.742-0.005-1.483-0.011-2.225-0.019c0-0.953,0-1.905,0.001-2.858  c0.742,0.001,1.483,0.004,2.224,0.004C12.039,16.845,12.039,17.803,12.039,18.76z M12.039,19.827c0,0.957-0.001,1.915-0.001,2.872  c-0.741-0.01-1.483-0.021-2.224-0.035c0-0.953,0-1.906,0-2.859C10.555,19.813,11.296,19.819,12.039,19.827z M8.768,22.64  c-0.741-0.018-1.482-0.035-2.223-0.057c0-0.943,0-1.887,0-2.831c0.741,0.013,1.482,0.025,2.223,0.036  C8.768,20.739,8.768,21.689,8.768,22.64z M8.767,23.697c0,0.944,0,1.89,0,2.832c-0.741-0.024-1.482-0.053-2.223-0.084  c0-0.938,0-1.873,0-2.811C7.284,23.658,8.026,23.679,8.767,23.697z M8.766,27.587c0,0.949-0.001,1.898-0.001,2.85  c-0.74-0.033-1.481-0.068-2.222-0.111c0-0.942,0-1.887,0-2.83C7.284,27.529,8.025,27.56,8.766,27.587z M8.765,31.494  c0,0.951-0.001,1.9-0.001,2.852c-0.74-0.04-1.481-0.087-2.221-0.139c0-0.943,0-1.887,0-2.831C7.283,31.42,8.023,31.459,8.765,31.494  z M8.763,35.404c0,0.949,0,1.899,0,2.851c-0.741-0.052-1.481-0.104-2.22-0.168c0-0.942,0-1.886,0-2.829  C7.282,35.31,8.022,35.361,8.763,35.404z M8.762,39.312c0,0.949,0,1.899-0.001,2.852c-0.741-0.059-1.48-0.123-2.219-0.195  c0-0.943,0-1.889,0-2.83C7.281,39.203,8.021,39.26,8.762,39.312z M8.76,43.219c0,0.944,0,1.888-0.001,2.832  c-0.74-0.065-1.479-0.14-2.218-0.224c0-0.938,0-1.875,0-2.812C7.281,43.092,8.02,43.16,8.76,43.219z M8.759,47.109  c0,0.951,0,1.9,0,2.851c-0.741-0.073-1.48-0.158-2.219-0.253c0-0.942,0-1.887,0-2.828C7.279,46.964,8.019,47.039,8.759,47.109z   M9.804,47.201c0.741,0.06,1.483,0.111,2.224,0.154c0,0.955,0,1.912,0,2.868c-0.742-0.045-1.484-0.103-2.225-0.166  C9.804,49.107,9.804,48.154,9.804,47.201z M12.027,51.291c0,0.957,0,1.916,0,2.873c-0.742-0.053-1.484-0.114-2.225-0.188  c0-0.951,0.001-1.904,0.001-2.857C10.544,51.187,11.285,51.244,12.027,51.291z M13.075,51.353c0.743,0.039,1.486,0.067,2.229,0.086  c0,0.961,0,1.922,0,2.885c-0.743-0.021-1.487-0.053-2.229-0.094C13.075,53.269,13.075,52.312,13.075,51.353z M16.353,51.459  c0.745,0.009,1.49,0.009,2.235,0c0,0.961,0,1.924,0,2.885c-0.745,0.013-1.491,0.013-2.235,0  C16.353,53.382,16.353,52.42,16.353,51.459z M19.639,51.439c0.741-0.019,1.485-0.049,2.229-0.086c0,0.959,0,1.92,0.001,2.877  c-0.743,0.041-1.485,0.072-2.229,0.094C19.639,53.361,19.639,52.4,19.639,51.439z M22.913,51.291  c0.743-0.047,1.483-0.104,2.226-0.172c0,0.953,0,1.906,0,2.857c-0.74,0.073-1.481,0.135-2.224,0.188  C22.914,53.205,22.914,52.248,22.913,51.291z M22.913,50.224c-0.001-0.956-0.001-1.912-0.001-2.869  c0.742-0.043,1.484-0.095,2.225-0.154c0,0.953,0,1.906,0.002,2.857C24.396,50.123,23.654,50.179,22.913,50.224z M26.184,47.109  c0.739-0.066,1.479-0.145,2.217-0.229c0,0.942,0,1.887,0,2.83c-0.736,0.092-1.478,0.177-2.217,0.252  C26.184,49.009,26.184,48.06,26.184,47.109z M26.184,46.051c-0.002-0.944-0.002-1.888-0.002-2.832  c0.739-0.06,1.48-0.127,2.219-0.202c0,0.938,0,1.873,0,2.811C27.662,45.912,26.923,45.986,26.184,46.051z M26.182,42.162  c0-0.95-0.002-1.9-0.002-2.85c0.74-0.052,1.48-0.109,2.219-0.176c0.002,0.943,0.002,1.887,0.002,2.83  C27.662,42.039,26.921,42.105,26.182,42.162z M26.18,38.253c0-0.95,0-1.9-0.002-2.852c0.742-0.041,1.482-0.093,2.221-0.146  c0,0.942,0,1.887,0,2.829C27.66,38.15,26.92,38.203,26.18,38.253z M26.178,34.345c0-0.949,0-1.898,0-2.852  c0.74-0.034,1.481-0.073,2.221-0.117c0,0.943,0,1.887,0,2.83C27.659,34.258,26.918,34.305,26.178,34.345z M26.177,30.437  c0-0.949,0-1.9-0.001-2.85c0.741-0.027,1.481-0.059,2.221-0.092c0,0.943,0.002,1.888,0.002,2.83  C27.659,30.367,26.918,30.404,26.177,30.437z M26.176,26.529c-0.001-0.942-0.001-1.888-0.001-2.832  c0.742-0.018,1.482-0.039,2.222-0.063c0,0.938,0,1.873,0,2.811C27.657,26.476,26.917,26.503,26.176,26.529z M26.174,22.64  c0-0.951-0.001-1.901-0.001-2.851c0.741-0.01,1.483-0.022,2.224-0.035c0,0.943,0,1.886,0,2.831  C27.657,22.605,26.915,22.623,26.174,22.64z M8.769,15.881c0,0.95,0,1.9-0.001,2.85c-0.741-0.008-1.482-0.018-2.223-0.028  c0-0.943,0-1.887,0-2.83C7.286,15.876,8.028,15.878,8.769,15.881z M6.54,50.758c0.738,0.097,1.478,0.183,2.218,0.258  c0,0.95,0,1.901,0,2.853c-0.741-0.084-1.48-0.178-2.218-0.28C6.54,52.646,6.54,51.701,6.54,50.758z M26.184,53.869  c0-0.95,0-1.899,0-2.853c0.739-0.075,1.479-0.163,2.217-0.259c0.002,0.941,0.002,1.889,0.002,2.83  C27.663,53.693,26.925,53.785,26.184,53.869z"/>
<path fill="#FFFFFF" id="svg2.highlight_2_" d="M0,0.943h5.497c0,0,6.847-0.943,11.974-0.943  C22.6,0,29.48,0.943,29.48,0.943h5.496v41.951c0,0-12.076-0.521-18.623-2.548C9.807,38.32,0,30.557,0,30.557V0.943z" enable-background="new    " opacity="0.17"/>
</svg>
      </g>
    </g>
    <g text-rendering="geometricPrecision" shape-rendering="geometricPrecision" transform="matrix(1,0,0,1,191.4524,160.458)">
      <g clip-path="url(#clipPath5)">
        <svg xml:space="preserve" opacity="1" writing-mode="lr-tb" stop-color="rgb(0, 0, 0)" shape-rendering="auto" glyph-orientation-horizontal="0deg" color-profile="auto" lighting-color="rgb(255, 255, 255)" color="rgb(0, 0, 0)" font-weight="400" alignment-baseline="auto" font-style="normal" version="1.1" color-interpolation-filters="linearrgb" text-anchor="start" stroke-linecap="butt" color-interpolation="srgb" font-variant="normal" word-spacing="normal" fill-opacity="1" text-rendering="auto" clip-path="none" text-decoration="none" letter-spacing="normal" viewBox="0 -0.741 36 57" glyph-orientation-vertical="auto" display="inline" font-size-adjust="none" overflow="hidden" fill="rgb(0, 0, 0)" font-stretch="normal" stroke-dasharray="none" stroke-miterlimit="4" stop-opacity="1" color-rendering="auto" font-size="12" pointer-events="visiblepainted" mask="none" direction="ltr" baseline-shift="baseline" enable-background="new 0 -0.741 36 57" fill-rule="nonzero" image-rendering="auto" stroke-dashoffset="0" width="36px" marker-end="none" clip="auto" cursor="auto" stroke="none" filter="none" visibility="visible" kerning="auto" stroke-width="1" font-family="&quot;Arial&quot;,&quot;Helvetica&quot;,sans-serif" flood-opacity="1" clip-rule="nonzero" src="none" height="57px" unicode-bidi="normal" stroke-linejoin="miter" stroke-opacity="1" flood-color="rgb(0, 0, 0)" dominant-baseline="auto" marker-start="none" x="0px" marker-mid="none" y="0px">
<defs>
</defs>
<linearGradient gradientTransform="matrix(1 0 0 1 -195.2002 -770.8008)" x1="230.1768" x2="180.3346" gradientUnits="userSpaceOnUse" y1="798.6021" y2="798.6021" id="svg3.SVGID_1_">
	<stop offset="0" style="stop-color:#4D4D4D"/>
	<stop offset="1" style="stop-color:#8D8D8D"/>
</linearGradient>
<rect fill="url(#svg3.SVGID_1_)" width="34.977" y="0.943" height="53.716"/>
<linearGradient gradientTransform="matrix(1 0 0 1 -195.2002 -770.8008)" x1="224.6807" x2="200.6973" gradientUnits="userSpaceOnUse" y1="798.6021" y2="798.6021" id="svg3.SVGID_2_">
	<stop offset="0.0319" style="stop-color:#848484"/>
	<stop offset="0.1202" style="stop-color:#8C8C8C"/>
	<stop offset="0.308" style="stop-color:#969696"/>
	<stop offset="0.5394" style="stop-color:#999999"/>
	<stop offset="0.5501" style="stop-color:#9C9C9C"/>
	<stop offset="0.6256" style="stop-color:#B0B0B0"/>
	<stop offset="0.7118" style="stop-color:#BEBEBE"/>
	<stop offset="0.8178" style="stop-color:#C7C7C7"/>
	<stop offset="1" style="stop-color:#C9C9C9"/>
</linearGradient>
<path fill="url(#svg3.SVGID_2_)" d="M5.497,0.943c7.945-1.258,16.04-1.258,23.983,0c0,17.905,0,35.811,0,53.716  c-7.943,1.258-16.039,1.258-23.983,0C5.497,36.753,5.497,18.848,5.497,0.943z"/>
<path fill="#515151" d="M5.497,14.621c7.995,0,15.989,0,23.983,0c0,13.346,0,26.693,0,40.037c-7.943,1.258-16.039,1.258-23.983,0  C5.497,41.314,5.497,27.967,5.497,14.621z"/>
<path fill="#565656" opacity="0.43" d="M5.497,4.745c7.982-0.628,16.001-0.628,23.983,0c0,2.707,0,5.413,0,8.12  c-7.994,0-15.989,0-23.983,0C5.497,10.158,5.497,7.452,5.497,4.745z"/>
<path fill="none" stroke-width="0.0999" d="M5.497,4.745  c7.982-0.628,16.001-0.628,23.983,0c0,2.707,0,5.413,0,8.12c-7.994,0-15.989,0-23.983,0C5.497,10.158,5.497,7.452,5.497,4.745z" stroke-miterlimit="10" opacity="0.43" stroke="#4D4D4D"/>
<polygon enable-background="new    " points="  6.496,5.746 9.869,5.606 9.869,6.661 6.496,6.799 " fill="#565656" opacity="0.43" stroke="#4D4D4D" stroke-width="0.0135" stroke-miterlimit="10"/>
<rect x="31.307" y="2.517" fill="#E7ED00" width="3.692" height="1.505" stroke="#717171" stroke-width="0.1926" stroke-miterlimit="10"/>
<rect x="31.307" y="5.8" fill="#C8FF00" width="3.692" height="1.507" stroke="#717171" stroke-width="0.1926" stroke-miterlimit="10"/>
<linearGradient y2="35.1235" id="svg3.SVGID_3_" x1="29.4414" gradientUnits="userSpaceOnUse" x2="5.4995" y1="35.1235">
	<stop offset="0" style="stop-color:#808080"/>
	<stop offset="0.1907" style="stop-color:#828282"/>
	<stop offset="0.2955" style="stop-color:#8A8A8A"/>
	<stop offset="0.3795" style="stop-color:#989898"/>
	<stop offset="0.4524" style="stop-color:#ACACAC"/>
	<stop offset="0.5175" style="stop-color:#C5C5C5"/>
	<stop offset="0.5273" style="stop-color:#C9C9C9"/>
	<stop offset="0.5914" style="stop-color:#C9C9C9"/>
	<stop offset="0.9681" style="stop-color:#C9C9C9"/>
</linearGradient>
<path fill="url(#svg3.SVGID_3_)" d="M5.5,14.822c0,13.22,0,26.438,0,39.66c7.931,1.256,16.012,1.256,23.941,0c0-13.222,0-26.439,0-39.66  C21.461,14.822,13.48,14.822,5.5,14.822z M28.396,18.703c-0.74,0.01-1.482,0.02-2.225,0.029c0-0.951,0-1.901-0.001-2.85  c0.742-0.003,1.483-0.005,2.224-0.008C28.396,16.817,28.396,17.76,28.396,18.703z M16.354,42.496c0-0.961,0-1.924,0-2.885  c0.744,0.006,1.489,0.006,2.233,0c0,0.961,0,1.924,0,2.885C17.843,42.503,17.098,42.503,16.354,42.496z M18.587,43.568  c0,0.955,0,1.91,0,2.866c-0.744,0.009-1.489,0.009-2.234,0c0-0.956,0-1.911,0-2.866C17.098,43.574,17.843,43.574,18.587,43.568z   M18.586,27.742c0,0.961,0,1.922,0,2.886c-0.744,0.004-1.488,0.004-2.231,0c0-0.964,0-1.925,0-2.886  C17.099,27.746,17.842,27.746,18.586,27.742z M16.354,26.671c0-0.955,0-1.91,0-2.865c0.743,0.002,1.487,0.002,2.23,0  c0,0.955,0,1.91,0,2.865C17.842,26.675,17.099,26.675,16.354,26.671z M16.354,34.583c0-0.961,0-1.924,0-2.885  c0.744,0.004,1.488,0.004,2.231,0c0,0.961,0,1.924,0,2.885C17.842,34.588,17.099,34.588,16.354,34.583z M18.586,35.656  c0,0.961,0,1.924,0.001,2.885c-0.745,0.008-1.489,0.008-2.233,0c0-0.961,0-1.924,0-2.885C17.099,35.66,17.842,35.66,18.586,35.656z   M15.307,30.619c-0.742-0.01-1.484-0.021-2.227-0.039c0-0.957,0-1.916,0-2.875c0.742,0.014,1.485,0.023,2.226,0.029  C15.307,28.695,15.307,29.656,15.307,30.619z M15.307,31.689c0,0.961,0,1.924,0,2.885c-0.742-0.012-1.485-0.025-2.227-0.047  c0-0.959,0.001-1.92,0.001-2.877C13.822,31.667,14.565,31.68,15.307,31.689z M15.307,35.644c0,0.959,0,1.922-0.001,2.883  c-0.742-0.012-1.485-0.031-2.228-0.056c0-0.959,0.001-1.918,0.001-2.877C13.821,35.617,14.564,35.633,15.307,35.644z M15.306,39.597  c0,0.96,0,1.922,0,2.883c-0.742-0.016-1.486-0.037-2.228-0.064c0-0.959,0-1.916,0.001-2.877  C13.82,39.564,14.563,39.585,15.306,39.597z M19.637,39.597c0.742-0.012,1.484-0.033,2.227-0.059c0,0.959,0,1.918,0,2.875  c-0.741,0.029-1.483,0.052-2.227,0.064C19.637,41.519,19.637,40.559,19.637,39.597z M19.637,38.527c0-0.961,0-1.924,0-2.883  c0.74-0.012,1.482-0.027,2.225-0.05c0,0.959,0,1.918,0.002,2.876C21.121,38.496,20.377,38.515,19.637,38.527z M19.637,34.572  c0-0.961,0-1.922-0.002-2.883c0.741-0.01,1.483-0.021,2.225-0.039c0.002,0.957,0.002,1.916,0.002,2.875  C21.119,34.547,20.376,34.564,19.637,34.572z M19.635,30.619c0-0.963,0-1.924,0-2.885c0.74-0.006,1.483-0.017,2.225-0.029  c0,0.959,0,1.916,0,2.875C21.118,30.599,20.376,30.609,19.635,30.619z M19.633,26.666c0-0.955,0-1.909,0-2.864  c0.741-0.005,1.483-0.013,2.227-0.021c0,0.951,0,1.903,0,2.856C21.118,26.65,20.375,26.66,19.633,26.666z M19.633,22.732  c-0.001-0.963-0.001-1.924-0.001-2.885c0.741-0.002,1.483-0.006,2.226-0.012c0,0.959,0.002,1.918,0.002,2.877  C21.116,22.72,20.374,22.728,19.633,22.732z M18.586,22.736c-0.744,0.002-1.487,0.002-2.23,0c0-0.963,0-1.924,0-2.887  c0.743,0.002,1.487,0.002,2.23,0C18.586,20.813,18.586,21.773,18.586,22.736z M15.309,22.732c-0.742-0.004-1.483-0.012-2.226-0.02  c0-0.959,0.001-1.918,0.001-2.877c0.742,0.006,1.484,0.01,2.226,0.012C15.31,20.808,15.309,21.769,15.309,22.732z M15.309,23.801  c0,0.955,0,1.91,0,2.864c-0.742-0.006-1.483-0.016-2.227-0.027c0-0.953,0-1.906,0-2.859C13.825,23.789,14.566,23.796,15.309,23.801z   M12.036,26.617c-0.742-0.017-1.483-0.033-2.225-0.055c0-0.947,0-1.895,0.001-2.841c0.741,0.019,1.483,0.031,2.225,0.042  C12.037,24.716,12.036,25.666,12.036,26.617z M12.035,27.683c0,0.957,0,1.916,0,2.873c-0.742-0.021-1.483-0.047-2.225-0.076  c0-0.953,0-1.904,0-2.857C10.552,27.646,11.293,27.667,12.035,27.683z M12.035,31.621c0,0.957-0.001,1.914-0.001,2.871  c-0.742-0.023-1.483-0.055-2.224-0.092c0-0.953,0-1.906,0-2.859C10.551,31.572,11.292,31.6,12.035,31.621z M12.033,35.56  c0,0.956-0.001,1.914-0.001,2.871c-0.742-0.031-1.484-0.066-2.225-0.111c0-0.953,0.001-1.906,0.001-2.858  C10.549,35.5,11.291,35.533,12.033,35.56z M12.031,39.498c0,0.955,0,1.914-0.001,2.869c-0.742-0.035-1.484-0.078-2.225-0.129  c0-0.953,0-1.904,0.001-2.857C10.547,39.426,11.289,39.465,12.031,39.498z M12.03,43.435c0,0.951-0.001,1.901-0.001,2.854  c-0.742-0.041-1.484-0.09-2.225-0.149c0-0.944,0.001-1.892,0.001-2.838C10.546,43.353,11.288,43.4,12.03,43.435z M13.077,43.482  c0.743,0.031,1.486,0.053,2.228,0.067c0,0.956,0,1.91,0,2.864c-0.742-0.016-1.486-0.041-2.229-0.074  C13.077,45.389,13.077,44.435,13.077,43.482z M15.305,47.486c0,0.961,0,1.922,0,2.883c-0.743-0.019-1.487-0.047-2.23-0.084  c0-0.959,0-1.918,0.001-2.875C13.818,47.443,14.562,47.468,15.305,47.486z M16.353,47.504c0.745,0.009,1.49,0.009,2.234,0  c0.001,0.96,0.001,1.924,0.001,2.883c-0.745,0.011-1.49,0.011-2.235,0C16.353,49.427,16.353,48.464,16.353,47.504z M19.639,47.486  c0.741-0.018,1.483-0.043,2.227-0.076c0,0.957,0.002,1.916,0.002,2.875c-0.742,0.037-1.486,0.065-2.229,0.084  C19.639,49.406,19.639,48.447,19.639,47.486z M19.637,46.414c0-0.954,0-1.908,0-2.864c0.742-0.015,1.484-0.036,2.229-0.067  c0,0.953,0,1.905,0,2.857C21.122,46.373,20.379,46.398,19.637,46.414z M22.911,43.435c0.741-0.035,1.483-0.082,2.224-0.135  c0,0.945,0,1.895,0.002,2.838c-0.74,0.059-1.482,0.107-2.226,0.15C22.911,45.336,22.911,44.386,22.911,43.435z M22.911,42.369  c-0.001-0.957-0.001-1.914-0.002-2.871c0.741-0.032,1.483-0.069,2.225-0.117c0,0.954,0.001,1.906,0.001,2.857  C24.395,42.289,23.652,42.333,22.911,42.369z M22.909,38.431c0-0.957-0.001-1.915-0.001-2.871c0.742-0.027,1.482-0.061,2.224-0.098  c0.001,0.951,0.001,1.904,0.001,2.857C24.393,38.363,23.65,38.4,22.909,38.431z M22.908,34.494c0-0.957-0.002-1.916-0.002-2.871  c0.742-0.021,1.482-0.051,2.225-0.079c0,0.952,0,1.903,0.001,2.856C24.391,34.437,23.648,34.468,22.908,34.494z M22.906,30.556  c0-0.957,0-1.916-0.002-2.873c0.742-0.016,1.484-0.037,2.226-0.061c0,0.953,0.001,1.904,0.001,2.857  C24.391,30.509,23.648,30.535,22.906,30.556z M22.904,26.617c0-0.951,0-1.901,0-2.854c0.74-0.011,1.482-0.025,2.224-0.042  c0,0.946,0.001,1.894,0.001,2.841C24.389,26.583,23.646,26.601,22.904,26.617z M22.902,22.699c0-0.957,0-1.916,0-2.874  c0.742-0.007,1.482-0.014,2.225-0.023c0.001,0.953,0.001,1.906,0.001,2.859C24.387,22.676,23.646,22.689,22.902,22.699z   M22.902,18.76C22.9,17.802,22.9,16.845,22.9,15.887c0.742,0,1.481-0.003,2.225-0.004c0.001,0.953,0.001,1.906,0.002,2.858  C24.385,18.75,23.643,18.756,22.902,18.76z M21.855,18.767c-0.742,0.004-1.482,0.007-2.225,0.009c0-0.961,0-1.922,0-2.884  c0.741,0,1.482-0.001,2.225-0.002C21.855,16.849,21.855,17.808,21.855,18.767z M18.585,18.779c-0.743,0.001-1.486,0.001-2.229,0  c0-0.961,0-1.923,0-2.885c0.742,0,1.486,0,2.229,0C18.585,16.855,18.585,17.817,18.585,18.779z M15.31,18.777  c-0.742-0.002-1.483-0.005-2.225-0.009c0-0.959,0-1.918,0-2.877c0.742,0,1.483,0.001,2.225,0.002  C15.31,16.854,15.31,17.815,15.31,18.777z M12.039,18.76c-0.742-0.005-1.483-0.011-2.225-0.019c0-0.953,0-1.905,0.001-2.858  c0.742,0.001,1.483,0.004,2.224,0.004C12.039,16.845,12.039,17.803,12.039,18.76z M12.039,19.827c0,0.957-0.001,1.915-0.001,2.872  c-0.741-0.01-1.483-0.021-2.224-0.035c0-0.953,0-1.906,0-2.859C10.555,19.813,11.296,19.819,12.039,19.827z M8.768,22.64  c-0.741-0.018-1.482-0.035-2.223-0.057c0-0.943,0-1.887,0-2.831c0.741,0.013,1.482,0.025,2.223,0.036  C8.768,20.739,8.768,21.689,8.768,22.64z M8.767,23.697c0,0.944,0,1.89,0,2.832c-0.741-0.024-1.482-0.053-2.223-0.084  c0-0.938,0-1.873,0-2.811C7.284,23.658,8.026,23.679,8.767,23.697z M8.766,27.587c0,0.949-0.001,1.898-0.001,2.85  c-0.74-0.033-1.481-0.068-2.222-0.111c0-0.942,0-1.887,0-2.83C7.284,27.529,8.025,27.56,8.766,27.587z M8.765,31.494  c0,0.951-0.001,1.9-0.001,2.852c-0.74-0.04-1.481-0.087-2.221-0.139c0-0.943,0-1.887,0-2.831C7.283,31.42,8.023,31.459,8.765,31.494  z M8.763,35.404c0,0.949,0,1.899,0,2.851c-0.741-0.052-1.481-0.104-2.22-0.168c0-0.942,0-1.886,0-2.829  C7.282,35.31,8.022,35.361,8.763,35.404z M8.762,39.312c0,0.949,0,1.899-0.001,2.852c-0.741-0.059-1.48-0.123-2.219-0.195  c0-0.943,0-1.889,0-2.83C7.281,39.203,8.021,39.26,8.762,39.312z M8.76,43.219c0,0.944,0,1.888-0.001,2.832  c-0.74-0.065-1.479-0.14-2.218-0.224c0-0.938,0-1.875,0-2.812C7.281,43.092,8.02,43.16,8.76,43.219z M8.759,47.109  c0,0.951,0,1.9,0,2.851c-0.741-0.073-1.48-0.158-2.219-0.253c0-0.942,0-1.887,0-2.828C7.279,46.964,8.019,47.039,8.759,47.109z   M9.804,47.201c0.741,0.06,1.483,0.111,2.224,0.154c0,0.955,0,1.912,0,2.868c-0.742-0.045-1.484-0.103-2.225-0.166  C9.804,49.107,9.804,48.154,9.804,47.201z M12.027,51.291c0,0.957,0,1.916,0,2.873c-0.742-0.053-1.484-0.114-2.225-0.188  c0-0.951,0.001-1.904,0.001-2.857C10.544,51.187,11.285,51.244,12.027,51.291z M13.075,51.353c0.743,0.039,1.486,0.067,2.229,0.086  c0,0.961,0,1.922,0,2.885c-0.743-0.021-1.487-0.053-2.229-0.094C13.075,53.269,13.075,52.312,13.075,51.353z M16.353,51.459  c0.745,0.009,1.49,0.009,2.235,0c0,0.961,0,1.924,0,2.885c-0.745,0.013-1.491,0.013-2.235,0  C16.353,53.382,16.353,52.42,16.353,51.459z M19.639,51.439c0.741-0.019,1.485-0.049,2.229-0.086c0,0.959,0,1.92,0.001,2.877  c-0.743,0.041-1.485,0.072-2.229,0.094C19.639,53.361,19.639,52.4,19.639,51.439z M22.913,51.291  c0.743-0.047,1.483-0.104,2.226-0.172c0,0.953,0,1.906,0,2.857c-0.74,0.073-1.481,0.135-2.224,0.188  C22.914,53.205,22.914,52.248,22.913,51.291z M22.913,50.224c-0.001-0.956-0.001-1.912-0.001-2.869  c0.742-0.043,1.484-0.095,2.225-0.154c0,0.953,0,1.906,0.002,2.857C24.396,50.123,23.654,50.179,22.913,50.224z M26.184,47.109  c0.739-0.066,1.479-0.145,2.217-0.229c0,0.942,0,1.887,0,2.83c-0.736,0.092-1.478,0.177-2.217,0.252  C26.184,49.009,26.184,48.06,26.184,47.109z M26.184,46.051c-0.002-0.944-0.002-1.888-0.002-2.832  c0.739-0.06,1.48-0.127,2.219-0.202c0,0.938,0,1.873,0,2.811C27.662,45.912,26.923,45.986,26.184,46.051z M26.182,42.162  c0-0.95-0.002-1.9-0.002-2.85c0.74-0.052,1.48-0.109,2.219-0.176c0.002,0.943,0.002,1.887,0.002,2.83  C27.662,42.039,26.921,42.105,26.182,42.162z M26.18,38.253c0-0.95,0-1.9-0.002-2.852c0.742-0.041,1.482-0.093,2.221-0.146  c0,0.942,0,1.887,0,2.829C27.66,38.15,26.92,38.203,26.18,38.253z M26.178,34.345c0-0.949,0-1.898,0-2.852  c0.74-0.034,1.481-0.073,2.221-0.117c0,0.943,0,1.887,0,2.83C27.659,34.258,26.918,34.305,26.178,34.345z M26.177,30.437  c0-0.949,0-1.9-0.001-2.85c0.741-0.027,1.481-0.059,2.221-0.092c0,0.943,0.002,1.888,0.002,2.83  C27.659,30.367,26.918,30.404,26.177,30.437z M26.176,26.529c-0.001-0.942-0.001-1.888-0.001-2.832  c0.742-0.018,1.482-0.039,2.222-0.063c0,0.938,0,1.873,0,2.811C27.657,26.476,26.917,26.503,26.176,26.529z M26.174,22.64  c0-0.951-0.001-1.901-0.001-2.851c0.741-0.01,1.483-0.022,2.224-0.035c0,0.943,0,1.886,0,2.831  C27.657,22.605,26.915,22.623,26.174,22.64z M8.769,15.881c0,0.95,0,1.9-0.001,2.85c-0.741-0.008-1.482-0.018-2.223-0.028  c0-0.943,0-1.887,0-2.83C7.286,15.876,8.028,15.878,8.769,15.881z M6.54,50.758c0.738,0.097,1.478,0.183,2.218,0.258  c0,0.95,0,1.901,0,2.853c-0.741-0.084-1.48-0.178-2.218-0.28C6.54,52.646,6.54,51.701,6.54,50.758z M26.184,53.869  c0-0.95,0-1.899,0-2.853c0.739-0.075,1.479-0.163,2.217-0.259c0.002,0.941,0.002,1.889,0.002,2.83  C27.663,53.693,26.925,53.785,26.184,53.869z"/>
<path fill="#FFFFFF" id="svg3.highlight_2_" d="M0,0.943h5.497c0,0,6.847-0.943,11.974-0.943  C22.6,0,29.48,0.943,29.48,0.943h5.496v41.951c0,0-12.076-0.521-18.623-2.548C9.807,38.32,0,30.557,0,30.557V0.943z" enable-background="new    " opacity="0.17"/>
</svg>
      </g>
    </g>
    <g text-rendering="geometricPrecision" shape-rendering="geometricPrecision" transform="matrix(1,0,0,1,697.187,32.031)">
      <g clip-path="url(#clipPath6)">
        <svg xml:space="preserve" opacity="1" writing-mode="lr-tb" stop-color="rgb(0, 0, 0)" shape-rendering="auto" glyph-orientation-horizontal="0deg" color-profile="auto" lighting-color="rgb(255, 255, 255)" color="rgb(0, 0, 0)" font-weight="400" alignment-baseline="auto" font-style="normal" version="1.1" color-interpolation-filters="linearrgb" text-anchor="start" stroke-linecap="butt" color-interpolation="srgb" font-variant="normal" word-spacing="normal" fill-opacity="1" text-rendering="auto" clip-path="none" text-decoration="none" letter-spacing="normal" viewBox="-0.064 -0.075 68 46" glyph-orientation-vertical="auto" display="inline" font-size-adjust="none" overflow="hidden" fill="rgb(0, 0, 0)" font-stretch="normal" stroke-dasharray="none" stroke-miterlimit="4" stop-opacity="1" color-rendering="auto" font-size="12" pointer-events="visiblepainted" mask="none" direction="ltr" baseline-shift="baseline" enable-background="new -0.064 -0.075 68 46" fill-rule="nonzero" image-rendering="auto" stroke-dashoffset="0" width="68px" marker-end="none" clip="auto" cursor="auto" stroke="none" filter="none" visibility="visible" kerning="auto" stroke-width="1" font-family="&quot;Arial&quot;,&quot;Helvetica&quot;,sans-serif" flood-opacity="1" clip-rule="nonzero" src="none" height="46px" unicode-bidi="normal" stroke-linejoin="miter" stroke-opacity="1" flood-color="rgb(0, 0, 0)" dominant-baseline="auto" marker-start="none" x="0px" marker-mid="none" y="0px">
<defs>
</defs>
<radialGradient gradientTransform="matrix(1.15 0 0 1 -526.6598 -1982.4023)" id="svg4.SVGID_1_" r="21.6001" cx="478.8413" gradientUnits="userSpaceOnUse" cy="1991.2729">
	<stop offset="0" style="stop-color:#F2F2F2"/>
	<stop offset="1" style="stop-color:#8D8D8D"/>
</radialGradient>
<path fill="url(#svg4.SVGID_1_)" d="M10.263,1.903c0-0.987,0.807-1.794,1.794-1.794h43.279c0.986,0,1.795,0.807,1.795,1.794v26.978  c0,0.987-0.809,1.794-1.795,1.794h-43.28c-0.987,0-1.794-0.807-1.794-1.794L10.263,1.903L10.263,1.903z"/>
<path stroke-linecap="round" display="none" fill="none" stroke-linejoin="round" d="  M10.263,1.903c0-0.987,0.807-1.794,1.794-1.794h43.279c0.986,0,1.795,0.807,1.795,1.794v26.978c0,0.987-0.809,1.794-1.795,1.794  h-43.28c-0.987,0-1.794-0.807-1.794-1.794L10.263,1.903L10.263,1.903z" stroke="#3C89C9" stroke-width="0.2185" stroke-miterlimit="10"/>
<radialGradient gradientTransform="matrix(1.1935 0 0 1 -509.6731 -1982.4023)" gradientUnits="userSpaceOnUse" r="47.8462" cx="455.894" id="svg4.SVGID_2_" cy="1983.9624" fx="493.5344" fy="1977.5143">
	<stop offset="0" style="stop-color:#4D4D4D"/>
	<stop offset="1" style="stop-color:#999999"/>
</radialGradient>
<path fill="url(#svg4.SVGID_2_)" d="M11.18,2.819c0-0.987,0.807-1.794,1.794-1.794h41.649c0.986,0,1.795,0.807,1.795,1.794v24.943  c0,0.985-0.809,1.794-1.795,1.794H12.974c-0.987,0-1.794-0.809-1.794-1.794V2.819z"/>
<radialGradient gradientTransform="matrix(1.1923 0 0 1 -510.1314 -1982.4023)" id="svg4.SVGID_3_" r="30.6699" cx="456.8843" gradientUnits="userSpaceOnUse" cy="1984.0386">
	<stop offset="0" style="stop-color:#9CD7FF"/>
	<stop offset="1" style="stop-color:#3C89C9"/>
</radialGradient>
<path fill="url(#svg4.SVGID_3_)" d="M11.689,3.228c0-0.987,0.807-1.794,1.794-1.794h40.633c0.986,0,1.795,0.807,1.795,1.794v24.126  c0,0.986-0.809,1.794-1.795,1.794H13.483c-0.987,0-1.794-0.809-1.794-1.794V3.228z"/>
<path fill="#F2F2F2" opacity="0.24" d="M11.689,21.472V3.228c0-0.987,0.807-1.794,1.794-1.794h40.633  c0.986,0,1.795,0.807,1.795,1.794v9.454c0,0.987-10.518,5.21-18.256,6.795C29.917,21.062,11.689,21.472,11.689,21.472z"/>
<linearGradient gradientTransform="matrix(1 0 0 -1 -97.6001 -165.0498)" x1="131.3501" x2="131.3501" gradientUnits="userSpaceOnUse" y1="-212.2612" y2="-170.6274" id="svg4.SVGID_4_">
	<stop offset="0" style="stop-color:#4D4D4D"/>
	<stop offset="0.0667" style="stop-color:#717171"/>
	<stop offset="0.069" style="stop-color:#757575"/>
	<stop offset="0.0831" style="stop-color:#8C8C8C"/>
	<stop offset="0.0996" style="stop-color:#9E9E9E"/>
	<stop offset="0.1196" style="stop-color:#AAAAAA"/>
	<stop offset="0.1466" style="stop-color:#B1B1B1"/>
	<stop offset="0.2121" style="stop-color:#B3B3B3"/>
	<stop offset="1" style="stop-color:#C5C5C5"/>
</linearGradient>
<path fill="url(#svg4.SVGID_4_)" d="M58.385,32.234c-0.689-0.856-2.154-1.559-3.254-1.559H12c-1.1,0-2.552,0.711-3.227,1.579  l-7.546,9.717C0,43.55,0.042,43.785,0,44.55v0.125c0.056,0.393,0.311,1.002,1.248,1.002h64.75c0.75,0.002,1.5-0.252,1.5-1.002V44.55  c0-0.813,0-0.813-1.254-2.559L58.385,32.234z"/>
<path fill="#F2F2F2" d="M58.385,32.234c-0.689-0.856-2.154-1.559-3.254-1.559H12  c-1.1,0-2.552,0.711-3.227,1.579l-7.055,9.085l58.098-7.33L58.385,32.234z" enable-background="new    " opacity="0.23"/>
<path fill="#6E6E6E" d="M59.75,37.205c0.344,0.431,0.172,0.783-0.377,0.783H8.249c-0.55,0-0.742-0.369-0.427-0.819l2.786-3.986  c0.315-0.45,1.023-0.819,1.573-0.819h42.729c0.551,0,1.279,0.354,1.623,0.783L59.75,37.205z"/>
<path fill="#6E6E6E" d="M40.43,41.906c0.072,0.217-0.057,0.395-0.285,0.395H26.727c-0.229,0-0.364-0.18-0.3-0.398l0.822-2.826  c0.064-0.221,0.303-0.399,0.532-0.399h11.167c0.229,0,0.475,0.179,0.547,0.396L40.43,41.906z"/>
</svg>
      </g>
    </g>
    <g text-rendering="geometricPrecision" shape-rendering="geometricPrecision" transform="matrix(0.9922,0,0,1.0642,88.696,10.7384)">
      <g clip-path="url(#clipPath7)">
        <svg xml:space="preserve" opacity="1" writing-mode="lr-tb" stop-color="rgb(0, 0, 0)" shape-rendering="auto" glyph-orientation-horizontal="0deg" color-profile="auto" lighting-color="rgb(255, 255, 255)" color="rgb(0, 0, 0)" font-weight="400" alignment-baseline="auto" font-style="normal" version="1.1" color-interpolation-filters="linearrgb" text-anchor="start" stroke-linecap="butt" color-interpolation="srgb" font-variant="normal" word-spacing="normal" fill-opacity="1" text-rendering="auto" clip-path="none" text-decoration="none" letter-spacing="normal" viewBox="0 0 57 63" glyph-orientation-vertical="auto" display="inline" font-size-adjust="none" overflow="hidden" fill="rgb(0, 0, 0)" font-stretch="normal" stroke-dasharray="none" id="svg5.Ebene_1" stroke-miterlimit="4" stop-opacity="1" color-rendering="auto" font-size="12" pointer-events="visiblepainted" mask="none" direction="ltr" baseline-shift="baseline" enable-background="new 0 0 57 63" fill-rule="nonzero" image-rendering="auto" stroke-dashoffset="0" width="57px" marker-end="none" clip="auto" cursor="auto" stroke="none" filter="none" visibility="visible" kerning="auto" stroke-width="1" font-family="&quot;Arial&quot;,&quot;Helvetica&quot;,sans-serif" flood-opacity="1" clip-rule="nonzero" src="none" height="63px" unicode-bidi="normal" stroke-linejoin="miter" stroke-opacity="1" flood-color="rgb(0, 0, 0)" dominant-baseline="auto" marker-start="none" x="0px" marker-mid="none" y="0px">
<g>
	
		<linearGradient gradientTransform="matrix(1 0 0 1 0.1602 -1546.3828)" x1="26.5" x2="27.741" gradientUnits="userSpaceOnUse" y1="1570.3457" y2="1600.1431" id="svg5.SVGID_1_">
		<stop offset="0.2711" style="stop-color:#FFAB4F"/>
		<stop offset="1" style="stop-color:#FFD28F"/>
	</linearGradient>
	<path fill="url(#svg5.SVGID_1_)" d="M49.529,51.225c-4.396-4.396-10.951-5.884-12.063-6.109   V37.8H19.278c0,0,0.038,6.903,0,6.868c0,0-6.874,0.997-12.308,6.432C1.378,56.691,0.5,62.77,0.5,62.77   c0,1.938,1.575,3.492,3.523,3.492h48.51c1.947,0,3.521-1.558,3.521-3.492C56.055,62.768,54.211,55.906,49.529,51.225z" stroke-miterlimit="10" stroke="#ED9135"/>
	
		<radialGradient gradientTransform="matrix(1 0 0 1 0.1602 -1546.3828)" gradientUnits="userSpaceOnUse" r="23.4243" cx="27.7427" id="svg5.face_x5F_white_1_" cy="1572.1094" fx="23.1732" fy="1569.6195">
		<stop offset="0" style="stop-color:#FFD28F"/>
		<stop offset="1" style="stop-color:#FFAB4F"/>
	</radialGradient>
	<path fill="url(#svg5.face_x5F_white_1_)" id="svg5.face_x5F_white_3_" d="M43.676,23.357   c0.086,10.2-6.738,18.52-15.247,18.586c-8.502,0.068-15.466-8.146-15.552-18.344C12.794,13.4,19.618,5.079,28.123,5.012   C36.627,4.945,43.59,13.158,43.676,23.357z" stroke-miterlimit="10" stroke="#ED9135"/>
	
		<linearGradient gradientTransform="matrix(0.275 0 0 -0.2733 -977.2951 -1807.6279)" x1="3646.5117" x2="3670.1414" gradientUnits="userSpaceOnUse" y1="-6644.2471" y2="-6737.6978" id="svg5.face_highlight_1_">
		<stop offset="0" style="stop-color:#FFFFFF;stop-opacity:0.24"/>
		<stop offset="1" style="stop-color:#FFFFFF;stop-opacity:0.16"/>
	</linearGradient>
	<path fill="url(#svg5.face_highlight_1_)" id="svg5.face_highlight_3_" d="M27.958,6.333c-6.035,0.047-10.747,4.493-12.787,10.386   c-0.664,1.919-0.294,4.043,0.98,5.629c2.73,3.398,5.729,6.283,9.461,8.088c3.137,1.518,7.535,2.384,11.893,1.247   c2.274-0.592,3.988-2.459,4.375-4.766c0.183-1.094,0.293-2.289,0.283-3.553C42.083,13.952,36.271,6.268,27.958,6.333z"/>
	<path fill="#656565" d="M15.038,26.653   c0.145,2.05,3.468,2.593,6.477,2.56c2.298-0.026,3.25-0.889,4.746-2.685c2.539-3.05-0.767-3.715-4.817-3.67   C15.984,22.919,14.777,22.933,15.038,26.653z" stroke-miterlimit="10" stroke="#4B4B4B" stroke-linejoin="round"/>
	<path fill="#656565" d="M41.116,26.653   c-0.146,2.05-3.47,2.593-6.478,2.56c-2.299-0.026-3.252-0.889-4.746-2.685c-2.538-3.05,0.769-3.715,4.816-3.67   C40.17,22.919,41.377,22.933,41.116,26.653z" stroke-miterlimit="10" stroke="#4B4B4B" stroke-linejoin="round"/>
	<path fill="none" d="M27.453,24.375   c0,0,0.604-0.469,1.305,0" stroke-miterlimit="10" stroke="#4B4B4B" stroke-linecap="round" stroke-linejoin="round"/>
	
		<line stroke-linecap="round" fill="none" x1="41.727" x2="41.844" y1="24.592" y2="25.375" stroke="#4B4B4B" stroke-miterlimit="10"/>
	
		<line stroke-linecap="round" fill="none" x1="42.165" x2="44.027" y1="24.938" y2="24.938" stroke="#4B4B4B" stroke-miterlimit="10"/>
	
		<line stroke-linecap="round" fill="none" x1="14.374" x2="14.257" y1="24.592" y2="25.375" stroke="#4B4B4B" stroke-miterlimit="10"/>
	
		<line stroke-linecap="round" fill="none" x1="13.937" x2="12.073" y1="24.938" y2="24.938" stroke="#4B4B4B" stroke-miterlimit="10"/>
	<path stroke-linecap="round" fill="#9B9B9B" stroke-linejoin="round" d="   M0.5,62.768c0,1.938,1.575,3.494,3.523,3.494h48.51c1.947,0,3.521-1.559,3.521-3.494c0,0-1.844-6.861-6.525-11.543   c-4.815-4.813-11.244-6.146-11.244-6.146c-1.771,1.655-5.61,2.802-10.063,2.802c-4.453,0-8.292-1.146-10.063-2.802   c0,0-5.755,0.586-11.189,6.021C1.378,56.689,0.5,62.768,0.5,62.768z" id="svg5.body_9_" stroke="#4B4B4B" stroke-miterlimit="10"/>
	
		<path stroke-linecap="round" fill="#9B9B9B" stroke-linejoin="round" d="   M39.715,44.786l-1.557-3.405c0,0-0.574,2.369-3.012,4.441c-2.109,1.795-6.785,2.072-6.785,2.072s-4.753-0.356-6.722-2.031   c-2.436-2.072-3.012-4.441-3.012-4.441l-1.555,3.404c0,0-0.552,1.404,1.37,3.479c1.025,1.105,5.203,3.611,9.682,3.582   c4.479-0.029,9.264-2.594,10.218-3.623C40.266,46.191,39.715,44.786,39.715,44.786z" id="svg5.turtleneck_6_" stroke="#4B4B4B" stroke-miterlimit="10"/>
	<path fill="#656565" d="M49.529,51.225   c-1.094-1.094-2.319-2.006-3.563-2.766c0.193,0.346,0.401,0.68,0.574,1.041c-4.906,6.014-15.921,9.289-21.743,16.709   c1.969-7.594-11.166-13.127-14.493-16.926c-0.158-0.182-0.258-0.422-0.332-0.686c-1.015,0.707-2.031,1.525-3.001,2.5   c-5.592,5.592-6.47,11.67-6.47,11.67c0,1.936,1.575,3.489,3.523,3.489h48.51c1.948,0,3.521-1.558,3.521-3.489   C56.055,62.768,54.211,55.906,49.529,51.225z" stroke-miterlimit="10" stroke="#4B4B4B" stroke-linecap="round" stroke-linejoin="round"/>
	<path fill="#656565" d="M3.007,32.205   c1.521,2.295,10.771,12.17,10.771,12.17s-5.137,3.012-3.474,4.908c3.327,3.799,10.533,14.018,14.865,16.467   c2.499-4.6-3.906-23.327-5.724-25.833c-1.296-1.786-3.22-3.269-4.598-5.417C14.846,34.5,9.195,34.5,3.007,32.205z" stroke-miterlimit="10" stroke="#4B4B4B" stroke-linejoin="round"/>
	<path fill="#656565" d="M52.277,32.205   c-4.791,3.299-10.368,10.391-11.074,11.066c2.313,1.744,4.9,3.799,6.146,6.406c-4.906,6.014-14.766,9.277-21.747,16.069   c2.015-7.771,5.157-20.46,12.517-27.083c1.667-1.5,2.713-2.833,4.043-5.391C42.165,33.275,45.637,33.25,52.277,32.205z" stroke-miterlimit="10" stroke="#4B4B4B" stroke-linecap="round" stroke-linejoin="round"/>
	<path stroke-linecap="round" fill="#9B9B9B" stroke-linejoin="round" d="   M28.276,15.5c5.635,0,10.826,1.416,14.979,3.794c-1.614-8.228-7.794-14.34-15.132-14.282c-7.272,0.057-13.299,6.155-14.846,14.294   C17.434,16.921,22.632,15.5,28.276,15.5z" id="svg5.wh2_1_" stroke="#4B4B4B" stroke-miterlimit="10"/>
	<path stroke-linecap="round" fill="#9B9B9B" stroke-linejoin="round" d="   M28.278,20.808c5.662,0,11.937,0.811,16.391,2.207c-0.11-2.059-0.274-2.826-0.413-3.72c-4.154-2.379-10.344-3.795-15.98-3.795   c-5.644,0-11.842,1.421-16,3.807c-0.228,1.197-0.362,2.436-0.388,3.707C16.343,21.618,22.618,20.808,28.278,20.808z" id="svg5.wh1_1_" stroke="#4B4B4B" stroke-miterlimit="10"/>
</g>
</svg>
      </g>
    </g>
    <g text-rendering="geometricPrecision" stroke-miterlimit="1.45" shape-rendering="geometricPrecision" font-family="sans-serif" transform="matrix(1,0,0,1,-118,-367)" stroke-linecap="butt">
      <text x="135.582" xml:space="preserve" y="417.7797" clip-path="url(#clipPath2)" stroke="none">Attacker</text>
    </g>
    <g text-rendering="geometricPrecision" shape-rendering="geometricPrecision" transform="matrix(0.9989,0,0,1.0761,794.749,15.4659)">
      <g clip-path="url(#clipPath8)">
        <svg xml:space="preserve" opacity="1" writing-mode="lr-tb" stop-color="rgb(0, 0, 0)" shape-rendering="auto" glyph-orientation-horizontal="0deg" color-profile="auto" lighting-color="rgb(255, 255, 255)" color="rgb(0, 0, 0)" font-weight="400" alignment-baseline="auto" font-style="normal" version="1.1" color-interpolation-filters="linearrgb" text-anchor="start" stroke-linecap="butt" color-interpolation="srgb" font-variant="normal" word-spacing="normal" fill-opacity="1" text-rendering="auto" clip-path="none" text-decoration="none" letter-spacing="normal" viewBox="0 0 57 65" glyph-orientation-vertical="auto" display="inline" font-size-adjust="none" overflow="hidden" fill="rgb(0, 0, 0)" font-stretch="normal" stroke-dasharray="none" id="svg6.Ebene_1" stroke-miterlimit="4" stop-opacity="1" color-rendering="auto" font-size="12" pointer-events="visiblepainted" mask="none" direction="ltr" baseline-shift="baseline" enable-background="new 0 0 57 65" fill-rule="nonzero" image-rendering="auto" stroke-dashoffset="0" width="57px" marker-end="none" clip="auto" cursor="auto" stroke="none" filter="none" visibility="visible" kerning="auto" stroke-width="1" font-family="&quot;Arial&quot;,&quot;Helvetica&quot;,sans-serif" flood-opacity="1" clip-rule="nonzero" src="none" height="65px" unicode-bidi="normal" stroke-linejoin="miter" stroke-opacity="1" flood-color="rgb(0, 0, 0)" dominant-baseline="auto" marker-start="none" x="0px" marker-mid="none" y="0px">
<g>
	
		<linearGradient gradientTransform="matrix(1 0 0 -1 0.1201 -708.5371)" x1="26.5396" x2="27.7805" gradientUnits="userSpaceOnUse" y1="-732.5005" y2="-762.2984" id="svg6.SVGID_1_">
		<stop offset="0.2711" style="stop-color:#FFAB4F"/>
		<stop offset="1" style="stop-color:#FFD28F"/>
	</linearGradient>
	<path fill="url(#svg6.SVGID_1_)" d="M49.529,51.225c-4.396-4.396-10.951-5.884-12.063-6.109   V37.8H19.278c0,0,0.038,6.903,0,6.868c0,0-6.874,0.997-12.308,6.432C1.378,56.691,0.5,62.77,0.5,62.77   c0,1.938,1.575,3.492,3.523,3.492h48.51c1.947,0,3.521-1.558,3.521-3.492C56.055,62.768,54.211,55.906,49.529,51.225z" stroke-miterlimit="10" stroke="#ED9135"/>
	
		<radialGradient gradientTransform="matrix(1 0 0 -1 0.1201 -708.5371)" gradientUnits="userSpaceOnUse" r="23.424" cx="27.7827" id="svg6.face_x5F_white_1_" cy="-734.2632" fx="23.2131" fy="-736.753">
		<stop offset="0" style="stop-color:#FFD28F"/>
		<stop offset="1" style="stop-color:#FFAB4F"/>
	</radialGradient>
	<path fill="url(#svg6.face_x5F_white_1_)" id="svg6.face_x5F_white_3_" d="M43.676,23.357   c0.086,10.2-6.738,18.52-15.246,18.586c-8.503,0.068-15.467-8.146-15.553-18.344C12.794,13.4,19.618,5.079,28.123,5.012   C36.627,4.945,43.59,13.158,43.676,23.357z" stroke-miterlimit="10" stroke="#ED9135"/>
	
		<linearGradient gradientTransform="matrix(0.275 0 0 0.2733 -783.3976 -1543.4047)" x1="2941.4297" x2="2965.0596" gradientUnits="userSpaceOnUse" y1="5677.457" y2="5770.9087" id="svg6.face_highlight_1_">
		<stop offset="0" style="stop-color:#FFFFFF;stop-opacity:0.42"/>
		<stop offset="1" style="stop-color:#FFFFFF;stop-opacity:0.2067"/>
	</linearGradient>
	<path fill="url(#svg6.face_highlight_1_)" id="svg6.face_highlight_3_" d="M27.958,6.333c-6.035,0.047-10.747,4.493-12.787,10.386   c-0.664,1.919-0.294,4.043,0.98,5.629c2.73,3.398,5.729,6.283,9.461,8.088c3.137,1.518,7.535,2.385,11.893,1.247   c2.274-0.592,3.988-2.459,4.375-4.766c0.183-1.094,0.293-2.289,0.283-3.553C42.083,13.952,36.271,6.268,27.958,6.333z"/>
	<path fill="#CC9869" d="M32.215,9.938   c0,0,5.688,2.75,7.688,8.125c2.104,5.652,4.123,8.232,4.188,8c1.875-6.794,1.063-21.438-10.17-21.587   c-20.455-7.663-25.58,11.962-23.893,19.65c1.078,4.911,2.234,6.686,3.938,8.08C13.966,32.205,15.028,17.563,32.215,9.938z" stroke="#99724F" stroke-linecap="round" stroke-linejoin="round"/>
	
		<radialGradient gradientTransform="matrix(1 0 0 -1 0.1201 -708.5371)" id="svg6.collar_x5F_body_2_" r="32.4004" cx="15.1587" gradientUnits="userSpaceOnUse" cy="-765.7056">
		<stop offset="0" style="stop-color:#B0E8FF"/>
		<stop offset="1" style="stop-color:#74AEEE"/>
	</radialGradient>
	<path fill="url(#svg6.collar_x5F_body_2_)" d="M0.5,62.768c0,1.938,1.575,3.494,3.523,3.494   h48.51c1.947,0,3.521-1.559,3.521-3.494c0,0-1.844-6.861-6.525-11.543c-4.815-4.813-11.244-6.146-11.244-6.146   c-1.771,1.655-5.61,2.802-10.063,2.802c-4.453,0-8.292-1.146-10.063-2.802c0,0-5.755,0.586-11.189,6.021   C1.378,56.689,0.5,62.768,0.5,62.768z" id="svg6.collar_x5F_body_1_" stroke="#5491CF"/>
	
		<radialGradient gradientTransform="matrix(1 0 0 -1 0.1201 -708.5371)" id="svg6.collar_x5F_r_2_" r="9.2834" cx="31.5" gradientUnits="userSpaceOnUse" cy="-755.832">
		<stop offset="0" style="stop-color:#80CCFF"/>
		<stop offset="1" style="stop-color:#74AEEE"/>
	</radialGradient>
	<path fill="url(#svg6.collar_x5F_r_2_)" d="M38.159,41.381c0,0-0.574,2.369-3.013,4.441   c-2.108,1.795-5.783,2.072-5.783,2.072l3.974,6.217c0,0,2.957-1.637,5.009-3.848c1.922-2.072,1.37-5.479,1.37-5.479L38.159,41.381z   " id="svg6.collar_x5F_r_1_" stroke="#5491CF"/>
	
		<radialGradient gradientTransform="matrix(1 0 0 -1 0.1201 -708.5371)" id="svg6.collar_x5F_l_2_" r="9.2837" cx="19.1377" gradientUnits="userSpaceOnUse" cy="-755.873">
		<stop offset="0" style="stop-color:#80CCFF"/>
		<stop offset="1" style="stop-color:#74AEEE"/>
	</radialGradient>
	<path fill="url(#svg6.collar_x5F_l_2_)" d="M18.63,41.422c0,0,0.576,2.369,3.012,4.441   c2.109,1.793,5.785,2.072,5.785,2.072l-3.974,6.217c0,0-2.957-1.637-5.007-3.85c-1.922-2.072-1.37-5.48-1.37-5.48L18.63,41.422z" id="svg6.collar_x5F_l_1_" stroke="#5491CF"/>
	
		<radialGradient gradientTransform="matrix(1 0 0 -1 0.04 64.1543)" id="svg6.Knob2_2_" r="0.9669" cx="27.8872" gradientUnits="userSpaceOnUse" cy="7.9414">
		<stop offset="0" style="stop-color:#80CCFF"/>
		<stop offset="1" style="stop-color:#74AEEE"/>
	</radialGradient>
	<circle fill="url(#svg6.Knob2_2_)" r="0.584" id="svg6.Knob2_1_" cx="28.258" cy="56.254" stroke="#5491CF"/>
	
		<radialGradient gradientTransform="matrix(1 0 0 -1 0.04 64.1543)" id="svg6.Knob1_2_" r="0.9669" cx="27.9253" gradientUnits="userSpaceOnUse" cy="1.6973">
		<stop offset="0" style="stop-color:#80CCFF"/>
		<stop offset="1" style="stop-color:#74AEEE"/>
	</radialGradient>
	<circle fill="url(#svg6.Knob1_2_)" r="0.584" id="svg6.Knob1_1_" cx="28.296" cy="62.499" stroke="#5491CF"/>
</g>
</svg>
      </g>
    </g>
    <g text-rendering="geometricPrecision" stroke-miterlimit="1.45" shape-rendering="geometricPrecision" font-family="sans-serif" transform="matrix(1,0,0,1,-118,-367)" stroke-linecap="butt">
      <text x="983.0915" xml:space="preserve" y="421.5947" clip-path="url(#clipPath2)" stroke="none">Victim</text>
    </g>
    <g text-rendering="geometricPrecision" stroke-miterlimit="1.45" shape-rendering="geometricPrecision" transform="matrix(1,0,0,1,-118,-367)" stroke-linecap="butt">
      <path fill="none" d="M327 444.8022 L327 519.9019" clip-path="url(#clipPath2)"/>
      <path d="M327 527.9019 L332 515.9019 L327 518.9019 L322 515.9019 Z" clip-path="url(#clipPath2)" stroke="none"/>
      <text x="352.0975" xml:space="preserve" y="493.9888" clip-path="url(#clipPath2)" font-family="sans-serif" stroke="none">4 - Relay authentication</text>
      <text x="379.2234" xml:space="preserve" y="507.9576" clip-path="url(#clipPath2)" font-family="sans-serif" stroke="none">to target share</text>
      <path fill="none" d="M844 527.8434 L844 452.785" clip-path="url(#clipPath2)"/>
      <path d="M844 444.785 L839 456.785 L844 453.785 L849 456.785 Z" clip-path="url(#clipPath2)" stroke="none"/>
      <text x="732.5576" xml:space="preserve" y="483.5044" clip-path="url(#clipPath2)" font-family="sans-serif" stroke="none">2 - Get file,</text>
      <text x="701.8838" xml:space="preserve" y="497.4732" clip-path="url(#clipPath2)" font-family="sans-serif" stroke="none">icon on remote share</text>
      <path fill="none" d="M854 444.785 L854 519.8434" clip-path="url(#clipPath2)"/>
      <path d="M854 527.8434 L859 515.8434 L854 518.8434 L849 515.8434 Z" clip-path="url(#clipPath2)" stroke="none"/>
      <text x="873.4639" xml:space="preserve" y="487.5044" clip-path="url(#clipPath2)" font-family="sans-serif" stroke="none">1 - Connect to</text>
      <text x="872.9629" xml:space="preserve" y="501.4732" clip-path="url(#clipPath2)" font-family="sans-serif" stroke="none">network share</text>
      <path fill="none" d="M825.3278 422 L358.6937 422" clip-path="url(#clipPath2)"/>
      <path d="M350.6937 422 L362.6937 427 L359.6937 422 L362.6937 417 Z" clip-path="url(#clipPath2)" stroke="none"/>
      <text x="499.8955" xml:space="preserve" y="396.1543" clip-path="url(#clipPath2)" font-family="sans-serif" stroke="none">3 - Connect to attacker share</text>
    </g>
  </g>
</svg>
